<svg width="24" height="24" viewBox="0 0 24 24" fill="none" xmlns="http://www.w3.org/2000/svg">
<g clip-path="url(#clip0_145_506)">
<path d="M24 0H0V24H24V0Z" fill="#1D6FED"/>
<path fill-rule="evenodd" clip-rule="evenodd" d="M9.10737 12.463H6.95675V14.7322H9.07362C9.80112 14.7322 10.3777 14.5006 10.3777 13.6428C10.3782 12.8014 9.89065 12.463 9.10737 12.463ZM8.83128 9.16016H6.95628V11.0905H8.9719C9.61034 11.0905 10.0903 10.8027 10.0903 10.1084C10.0903 9.31812 9.48612 9.16016 8.83128 9.16016ZM12.2635 13.6766C12.2635 15.3537 10.8239 16.0705 9.32253 16.0705H5.28003V7.76562H9.20394C10.7897 7.76562 11.8678 8.32484 11.8678 9.86563C11.8678 10.6733 11.4563 11.2377 10.7339 11.5873C11.7492 11.8752 12.2635 12.6495 12.2635 13.6766ZM14.2397 8.32484H17.5814V9.43672H14.2397V8.32484ZM15.7355 11.1702C14.6855 11.1702 14.3803 11.7575 14.3578 12.2145H17.0564C16.9041 11.3844 16.5427 11.1697 15.735 11.1697L15.7355 11.1702ZM14.3578 13.2931C14.4047 14.3319 14.9171 14.998 15.8372 14.998C16.5028 14.998 17.1132 14.4556 17.2205 14.0834H18.6769C18.2138 15.4953 17.1464 16.2345 15.7805 16.2345C13.8783 16.2345 12.6807 14.9412 12.6807 13.0897C12.6807 11.3 13.9505 9.93359 15.7805 9.93359C17.836 9.93359 18.8274 11.4528 18.7107 13.2931H14.3578Z" fill="white"/>
</g>
<defs>
<clipPath id="clip0_145_506">
<rect width="24" height="24" fill="white"/>
</clipPath>
</defs>
</svg>
