<svg width="24" height="24" viewBox="0 0 24 24" fill="none" xmlns="http://www.w3.org/2000/svg">
<g clip-path="url(#clip0_145_458)">
<path fill-rule="evenodd" clip-rule="evenodd" d="M2.66667 24H21.3333C22.8061 24 24 22.8061 24 21.3333V2.66667C24 1.19391 22.8061 0 21.3333 0H2.66667C1.19391 0 0 1.19391 0 2.66667V21.3333C0 22.8061 1.19391 24 2.66667 24Z" fill="#007EBB"/>
<path fill-rule="evenodd" clip-rule="evenodd" d="M20.6666 20.6668H17.1052V14.6009C17.1052 12.9377 16.4732 12.0083 15.1569 12.0083C13.7248 12.0083 12.9767 12.9755 12.9767 14.6009V20.6668H9.54442V9.11127H12.9767V10.6678C12.9767 10.6678 14.0087 8.75823 16.4608 8.75823C18.9119 8.75823 20.6666 10.255 20.6666 13.3506V20.6668ZM5.44976 7.59817C4.28067 7.59817 3.33331 6.64338 3.33331 5.46583C3.33331 4.28828 4.28067 3.3335 5.44976 3.3335C6.61886 3.3335 7.56565 4.28828 7.56565 5.46583C7.56565 6.64338 6.61886 7.59817 5.44976 7.59817ZM3.6775 20.6668H7.25645V9.11127H3.6775V20.6668Z" fill="white"/>
</g>
<defs>
<clipPath id="clip0_145_458">
<rect width="24" height="24" fill="white"/>
</clipPath>
</defs>
</svg>
