<svg width="24" height="24" viewBox="0 0 24 24" fill="none" xmlns="http://www.w3.org/2000/svg">
<g clip-path="url(#clip0_145_510)">
<path fill-rule="evenodd" clip-rule="evenodd" d="M2.66667 24H21.3333C22.8061 24 24 22.8061 24 21.3333V2.66667C24 1.19391 22.8061 0 21.3333 0H2.66667C1.19391 0 0 1.19391 0 2.66667V21.3333C0 22.8061 1.19391 24 2.66667 24Z" fill="#007EBB"/>
<path fill-rule="evenodd" clip-rule="evenodd" d="M20.6666 20.6663H17.1052V14.6004C17.1052 12.9373 16.4732 12.0079 15.1569 12.0079C13.7248 12.0079 12.9767 12.975 12.9767 14.6004V20.6663H9.54442V9.11079H12.9767V10.6673C12.9767 10.6673 14.0087 8.75775 16.4608 8.75775C18.9119 8.75775 20.6666 10.2545 20.6666 13.3501V20.6663ZM5.44976 7.59768C4.28067 7.59768 3.33331 6.64289 3.33331 5.46534C3.33331 4.28779 4.28067 3.33301 5.44976 3.33301C6.61886 3.33301 7.56565 4.28779 7.56565 5.46534C7.56565 6.64289 6.61886 7.59768 5.44976 7.59768ZM3.6775 20.6663H7.25645V9.11079H3.6775V20.6663Z" fill="white"/>
</g>
<defs>
<clipPath id="clip0_145_510">
<rect width="24" height="24" fill="white"/>
</clipPath>
</defs>
</svg>
